<?xml version="1.0" encoding="UTF-8"?>
<svg width="11px" height="23px" viewBox="0 0 11 23" version="1.1" xmlns="http://www.w3.org/2000/svg" xmlns:xlink="http://www.w3.org/1999/xlink">
    <!-- Generator: sketchtool 59 (101010) - https://sketch.com -->
    <title>0DD94F63-941C-4333-ACA4-11690B3850E7</title>
    <desc>Created with sketchtool.</desc>
    <g id="Litpay" stroke="none" stroke-width="1" fill="none" fill-rule="evenodd">
        <g id="Litpay_Desktop" transform="translate(-1411.000000, -6503.000000)" fill="#7E879F" fill-rule="nonzero">
            <g id="Footer" transform="translate(0.000000, 6369.000000)">
                <g id="facebook" transform="translate(1411.000000, 134.000000)">
                    <g id="facebok">
                        <path d="M2.26274562,4.44524362 C2.26274562,5.02365893 2.26274562,7.60536891 2.26274562,7.60536891 L0.0357267519,7.60536891 L0.0357267519,11.4695824 L2.26274562,11.4695824 L2.26274562,22.9526659 L6.83751514,22.9526659 L6.83751514,11.4699026 L9.9073979,11.4699026 C9.9073979,11.4699026 10.1949059,9.61704176 10.334271,7.59112065 C9.93470628,7.59112065 6.85481387,7.59112065 6.85481387,7.59112065 C6.85481387,7.59112065 6.85481387,5.34304408 6.85481387,4.94900232 C6.85481387,4.55410673 7.35360245,4.02291879 7.84659056,4.02291879 C8.3386547,4.02291879 9.37719442,4.02291879 10.3390962,4.02291879 C10.3390962,3.49680046 10.3390962,1.67894664 10.3390962,5.33642691e-05 C9.05498635,5.33642691e-05 7.59409071,5.33642691e-05 6.95013654,5.33642691e-05 C2.14966224,-0.000213457077 2.26274562,3.86784223 2.26274562,4.44524362 Z" id="Facebook"></path>
                    </g>
                </g>
            </g>
        </g>
    </g>
</svg>