<?xml version="1.0" encoding="UTF-8"?>
<svg width="16px" height="16px" viewBox="0 0 16 16" version="1.1" xmlns="http://www.w3.org/2000/svg" xmlns:xlink="http://www.w3.org/1999/xlink">
    <!-- Generator: sketchtool 59 (101010) - https://sketch.com -->
    <title>7BA51753-80EB-4D00-81AA-52489AC74165</title>
    <desc>Created with sketchtool.</desc>
    <g id="Litpay" stroke="none" stroke-width="1" fill="none" fill-rule="evenodd">
        <g id="Litpay_Desktop" transform="translate(-484.000000, -4926.000000)" fill="#7E879F" fill-rule="nonzero">
            <g id="Team" transform="translate(0.000000, 4441.000000)">
                <g id="person" transform="translate(375.000000, 270.000000)">
                    <g id="linkedin-logo" transform="translate(109.000000, 215.000000)">
                        <path d="M14.4,0 L1.6,0 C0.72,0 0,0.72 0,1.6 L0,14.4 C0,15.28 0.72,16 1.6,16 L14.4,16 C15.28,16 16,15.28 16,14.4 L16,1.6 C16,0.72 15.28,0 14.4,0 Z M4.8,13.6 L2.4,13.6 L2.4,6.4 L4.8,6.4 L4.8,13.6 Z M3.6,5.04 C2.8,5.04 2.16,4.4 2.16,3.6 C2.16,2.8 2.8,2.16 3.6,2.16 C4.4,2.16 5.04,2.8 5.04,3.6 C5.04,4.4 4.4,5.04 3.6,5.04 Z M13.6,13.6 L11.2,13.6 L11.2,9.36 C11.2,8.72003137 10.64,8.16 10,8.16 C9.36,8.16 8.8,8.72003137 8.8,9.36 L8.8,13.6 L6.4,13.6 L6.4,6.4 L8.8,6.4 L8.8,7.36 C9.2,6.72 10.08,6.24 10.8,6.24 C12.32,6.24 13.6,7.52 13.6,9.04 L13.6,13.6 Z" id="Shape"></path>
                    </g>
                </g>
            </g>
        </g>
    </g>
</svg>