<?xml version="1.0" encoding="UTF-8"?>
<svg width="107px" height="34px" viewBox="0 0 107 34" version="1.1" xmlns="http://www.w3.org/2000/svg" xmlns:xlink="http://www.w3.org/1999/xlink">
    <!-- Generator: sketchtool 59 (101010) - https://sketch.com -->
    <title>465D1983-484E-4839-BF5E-D6469CB2B090</title>
    <desc>Created with sketchtool.</desc>
    <g id="Desktop" stroke="none" stroke-width="1" fill="none" fill-rule="evenodd">
        <g id="Litpay_blue_red" transform="translate(-377.000000, -76.000000)" fill-rule="nonzero">
            <g id="Home" transform="translate(-1.000000, 0.000000)">
                <g id="Logo" transform="translate(378.000000, 76.000000)">
                    <g>
                        <path d="M44.584,6.248 L47.07,6.248 L47.07,19.624 L53.824,19.624 L53.824,22 L44.584,22 L44.584,6.248 Z M57.4961667,9.306 C57.026831,9.306 56.6345016,9.14466828 56.3191667,8.822 C56.0038318,8.49933172 55.8461667,8.11066894 55.8461667,7.656 C55.8461667,7.20133106 56.0038318,6.81266828 56.3191667,6.49 C56.6345016,6.16733172 57.026831,6.006 57.4961667,6.006 C57.9508356,6.006 58.3358318,6.16733172 58.6511667,6.49 C58.9665016,6.81266828 59.1241667,7.20133106 59.1241667,7.656 C59.1241667,8.11066894 58.9665016,8.49933172 58.6511667,8.822 C58.3358318,9.14466828 57.9508356,9.306 57.4961667,9.306 Z M56.2641667,22 L56.2641667,11.22 L58.7061667,11.22 L58.7061667,22 L56.2641667,22 Z M62.9283333,13.376 L61.0363333,13.376 L61.0363333,11.22 L62.9283333,11.22 L62.9283333,7.92 L65.3703333,7.92 L65.3703333,11.22 L68.0323333,11.22 L68.0323333,13.376 L65.3703333,13.376 L65.3703333,18.172 C65.3703333,18.4360013 65.3996664,18.6779989 65.4583333,18.898 C65.5170003,19.1180011 65.6049994,19.3013326 65.7223333,19.448 C65.9716679,19.7266681 66.2869981,19.866 66.6683333,19.866 C66.9030012,19.866 67.0863327,19.8476668 67.2183333,19.811 C67.350334,19.7743332 67.4896659,19.7193337 67.6363333,19.646 L68.3843333,21.802 C68.0763318,21.9193339 67.7536684,22.0109997 67.4163333,22.077 C67.0789983,22.1430003 66.6976688,22.176 66.2723333,22.176 C65.7589974,22.176 65.3043353,22.0953341 64.9083333,21.934 C64.5123314,21.7726659 64.1676681,21.5526681 63.8743333,21.274 C63.2436635,20.6433302 62.9283333,19.7853388 62.9283333,18.7 L62.9283333,13.376 Z M70.5825,11.22 L72.8925,11.22 L72.8925,12.606 L73.0245,12.606 C73.3178348,12.1366643 73.7651637,11.7296684 74.3665,11.385 C74.9678363,11.0403316 75.6864958,10.868 76.5225,10.868 C77.2118368,10.868 77.8681635,11.0109986 78.4915,11.297 C79.1148364,11.5830014 79.6611643,11.9826641 80.1305,12.496 C80.5998357,13.0093359 80.9738319,13.6143299 81.2525,14.311 C81.5311681,15.0076702 81.6705,15.7739958 81.6705,16.61 C81.6705,17.4460042 81.5311681,18.2123299 81.2525,18.909 C80.9738319,19.6056702 80.5998357,20.2106641 80.1305,20.724 C79.6611643,21.2373359 79.1148364,21.6369986 78.4915,21.923 C77.8681635,22.2090014 77.2118368,22.352 76.5225,22.352 C75.6864958,22.352 74.9678363,22.1796684 74.3665,21.835 C73.7651637,21.4903316 73.3178348,21.0833357 73.0245,20.614 L72.8925,20.614 L73.0245,22.11 L73.0245,26.752 L70.5825,26.752 L70.5825,11.22 Z M76.0605,20.086 C76.4711687,20.086 76.8708314,20.0053341 77.2595,19.844 C77.6481686,19.6826659 77.9854986,19.4516682 78.2715,19.151 C78.5575014,18.8503318 78.7884991,18.4873355 78.9645,18.062 C79.1405009,17.6366645 79.2285,17.1526694 79.2285,16.61 C79.2285,16.0673306 79.1405009,15.5833355 78.9645,15.158 C78.7884991,14.7326645 78.5575014,14.3696682 78.2715,14.069 C77.9854986,13.7683318 77.6481686,13.5373341 77.2595,13.376 C76.8708314,13.2146659 76.4711687,13.134 76.0605,13.134 C75.6351645,13.134 75.2318352,13.2146659 74.8505,13.376 C74.4691648,13.5373341 74.1355014,13.7646652 73.8495,14.058 C73.5634986,14.3513348 73.3325009,14.7143312 73.1565,15.147 C72.9804991,15.5796688 72.8925,16.0673306 72.8925,16.61 C72.8925,17.1526694 72.9804991,17.6403312 73.1565,18.073 C73.3325009,18.5056688 73.5634986,18.8686652 73.8495,19.162 C74.1355014,19.4553348 74.4691648,19.6826659 74.8505,19.844 C75.2318352,20.0053341 75.6351645,20.086 76.0605,20.086 Z M90.8426667,20.68 L90.7106667,20.68 C90.3879984,21.1053355 89.9700026,21.4903316 89.4566667,21.835 C88.9433308,22.1796684 88.2906706,22.352 87.4986667,22.352 C86.9266638,22.352 86.3913358,22.2603343 85.8926667,22.077 C85.3939975,21.8936658 84.9613352,21.6370017 84.5946667,21.307 C84.2279982,20.9769984 83.9383344,20.5883356 83.7256667,20.141 C83.5129989,19.6936644 83.4066667,19.1986694 83.4066667,18.656 C83.4066667,18.0839971 83.5203322,17.5706689 83.7476667,17.116 C83.9750011,16.6613311 84.2903313,16.2800015 84.6936667,15.972 C85.097002,15.6639985 85.5773305,15.4256675 86.1346667,15.257 C86.6920028,15.0883325 87.2933301,15.004 87.9386667,15.004 C88.6573369,15.004 89.2586642,15.073666 89.7426667,15.213 L90.12879,15.3297349 C90.426613,15.4247688 90.6645705,15.5141901 90.8426667,15.598 L90.8426667,15.18 C90.8426667,14.8573317 90.7730007,14.5566681 90.6336667,14.278 C90.4943326,13.9993319 90.3036679,13.761001 90.0616667,13.563 C89.8196655,13.364999 89.5446682,13.2110006 89.2366667,13.101 C88.9286651,12.9909995 88.6060017,12.936 88.2686667,12.936 C87.7259973,12.936 87.2383355,13.0423323 86.8056667,13.255 C86.3729978,13.4676677 85.9880017,13.8086643 85.6506667,14.278 L83.7146667,13.002 C84.2280026,12.2979965 84.8659962,11.7663351 85.6286667,11.407 C86.3913371,11.0476649 87.2566618,10.868 88.2246667,10.868 C89.8233413,10.868 91.0589956,11.263996 91.9316667,12.056 C92.8043377,12.848004 93.2406667,13.977326 93.2406667,15.444 L93.2406667,22 L90.8426667,22 L90.8426667,20.68 Z M90.8426667,17.512 C90.5199984,17.3213324 90.1606686,17.1673339 89.7646667,17.05 C89.3686647,16.9326661 88.9140026,16.874 88.4006667,16.874 C87.6379962,16.874 87.0293356,17.0499982 86.5746667,17.402 C86.1199977,17.7540018 85.8926667,18.1793308 85.8926667,18.678 C85.8926667,18.9420013 85.9513327,19.172999 86.0686667,19.371 C86.1860006,19.569001 86.3363324,19.7413326 86.5196667,19.888 C86.7030009,20.0346674 86.9156655,20.1446663 87.1576667,20.218 C87.3996679,20.2913337 87.6453321,20.328 87.8946667,20.328 C88.2906686,20.328 88.6683315,20.2510008 89.0276667,20.097 C89.3870018,19.9429992 89.6986653,19.7376679 89.9626667,19.481 C90.226668,19.2243321 90.4393325,18.927335 90.6006667,18.59 C90.7620008,18.252665 90.8426667,17.8933352 90.8426667,17.512 Z M99.1568333,21.384 L94.6688333,11.22 L97.3968333,11.22 L100.366833,18.37 L100.476833,18.37 L103.358833,11.22 L106.064833,11.22 L99.3108333,26.752 L96.7148333,26.752 L99.1568333,21.384 Z" id="Litpay" fill="#436DD8"></path>
                        <path d="M16.717,0.001 L30.9914589,14.2748137 L20.777,24.487 L20.7771117,30.1503306 L16.717795,34 L16.717,28.547 L16.717,28.548 L16.717,22.808 L25.2538816,14.2716504 L16.717,5.735 L16.717,0.001 Z M14.282,-0.016 L14.282,5.724 L5.74611844,14.260895 L14.282,22.797 L14.282,28.531 L0.00854105247,14.2577316 L14.282,-0.016 Z" id="litpay_logo" fill="#F66385"></path>
                    </g>
                </g>
            </g>
        </g>
    </g>
</svg>